<?xml version="1.0" standalone="no"?>
<!DOCTYPE svg PUBLIC "-//W3C//DTD SVG 20010904//EN"
 "http://www.w3.org/TR/2001/REC-SVG-20010904/DTD/svg10.dtd">
<svg version="1.0" xmlns="http://www.w3.org/2000/svg"
 width="500.000000pt" height="500.000000pt" viewBox="0 0 500.000000 500.000000"
 preserveAspectRatio="xMidYMid meet">
<metadata>
Created by potrace 1.16, written by Peter Selinger 2001-2019
</metadata>
<g transform="translate(0.000000,500.000000) scale(0.100000,-0.100000)"
fill="#000000" stroke="none">
<path d="M0 2500 l0 -2500 2500 0 2500 0 0 2500 0 2500 -2500 0 -2500 0 0
-2500z m2415 1084 c10 -4 23 -21 30 -37 18 -42 2 -84 -39 -101 -27 -12 -67
-75 -286 -455 -193 -335 -255 -449 -256 -477 -1 -42 -18 -61 -61 -70 -26 -5
-37 -1 -57 19 -45 45 -30 101 33 125 17 6 90 124 277 447 207 359 254 446 254
477 0 55 53 92 105 72z m296 -104 c38 -63 70 -103 93 -118 31 -19 36 -28 36
-59 0 -49 -23 -73 -71 -73 -45 0 -69 27 -69 79 0 31 -49 133 -70 146 -7 4
-540 -912 -540 -929 0 -3 110 -6 244 -6 204 0 246 2 256 15 18 22 76 19 100
-5 45 -45 11 -120 -54 -120 -18 0 -39 7 -46 15 -11 13 -56 15 -297 15 -280 0
-323 4 -323 33 0 15 604 1063 628 1090 30 33 53 17 113 -83z m209 -400 c18
-10 86 -116 264 -419 69 -116 96 -171 94 -190 l-3 -26 -186 -3 c-163 -2 -188
0 -200 14 -8 9 -46 71 -84 138 l-70 121 -207 5 -208 5 101 170 c55 93 105 175
111 182 13 16 359 19 388 3z m-1255 -960 c12 -10 15 -41 15 -156 l0 -144 -30
0 c-30 0 -30 0 -30 56 0 54 0 55 -27 52 -26 -3 -28 -7 -31 -55 -3 -51 -4 -53
-33 -53 l-29 0 0 138 c0 144 5 165 45 176 32 8 104 0 120 -14z m880 0 c12 -10
15 -41 15 -156 l0 -144 -30 0 c-30 0 -30 1 -30 55 0 52 -1 55 -25 55 -24 0
-25 -3 -25 -55 l0 -55 -35 0 -35 0 1 128 c1 150 6 174 39 184 34 10 107 3 125
-12z m779 0 c7 -7 12 -70 14 -155 l3 -145 -35 0 -36 0 0 55 c0 52 -1 55 -25
55 -24 0 -25 -3 -25 -55 0 -55 0 -55 -30 -55 l-31 0 3 147 c3 146 3 148 28
161 28 15 117 9 134 -8z m-1994 -55 l0 -65 30 0 30 0 0 65 0 65 35 0 35 0 0
-155 0 -155 -35 0 -35 0 0 66 0 65 -27 -3 c-27 -3 -28 -6 -31 -65 -3 -62 -3
-63 -32 -63 l-30 0 0 155 0 155 30 0 30 0 0 -65z m558 53 c15 -15 16 -114 1
-124 -8 -4 -8 -9 0 -17 6 -6 11 -44 11 -84 l0 -73 -30 0 -30 0 0 65 c0 63 -1
65 -25 65 -24 0 -25 -2 -25 -65 l0 -65 -30 0 -30 0 0 155 0 155 73 0 c43 0 78
-5 85 -12z m213 2 c17 -10 19 -22 19 -140 0 -159 -1 -160 -106 -160 l-74 0 0
155 0 155 71 0 c39 0 79 -5 90 -10z m772 -27 c3 -21 9 -71 13 -111 4 -40 9
-70 13 -67 3 4 13 52 21 108 15 98 16 102 42 105 31 4 32 0 49 -118 6 -47 15
-89 19 -93 4 -4 10 25 14 65 13 141 15 148 47 148 16 0 29 -3 29 -7 0 -5 -11
-73 -25 -153 -14 -80 -25 -146 -25 -147 0 -2 -15 -3 -34 -3 -38 0 -40 4 -51
80 -10 70 -17 102 -21 97 -3 -3 -34 -161 -34 -174 0 -2 -16 -3 -35 -3 -28 0
-36 4 -39 23 -6 28 -46 273 -46 281 0 3 13 6 29 6 25 0 29 -4 34 -37z m672 20
c13 -12 15 -28 11 -67 -7 -60 -7 -60 0 -153 l6 -73 -36 0 -36 0 0 65 c0 58 -2
65 -20 65 -18 0 -20 -7 -20 -65 l0 -65 -35 0 -35 0 0 155 0 155 74 0 c56 0 79
-4 91 -17z m195 -8 c0 -23 -4 -25 -41 -25 l-40 0 3 -37 c3 -35 6 -38 36 -41
26 -3 32 -7 32 -28 0 -21 -5 -24 -36 -24 -35 0 -35 -1 -32 -37 3 -36 5 -38 41
-41 32 -3 37 -7 37 -28 0 -23 -2 -24 -70 -24 l-70 0 0 155 0 155 70 0 c68 0
70 -1 70 -25z m-1410 -145 c0 -18 -7 -20 -80 -20 -73 0 -80 2 -80 20 0 18 7
20 80 20 73 0 80 -2 80 -20z m440 0 c0 -18 -7 -20 -80 -20 -73 0 -80 2 -80 20
0 18 7 20 80 20 73 0 80 -2 80 -20z"/>
<path d="M2362 3538 c-25 -25 0 -64 32 -52 21 8 21 50 0 58 -20 8 -18 8 -32
-6z"/>
<path d="M1776 2534 c-8 -8 -13 -21 -10 -29 8 -21 32 -26 48 -9 17 16 12 40
-9 48 -8 3 -21 -2 -29 -10z"/>
<path d="M2744 3316 c-10 -26 4 -48 28 -44 17 2 23 10 23 28 0 18 -6 26 -23
28 -13 2 -25 -3 -28 -12z"/>
<path d="M2614 2495 c-9 -23 3 -45 26 -45 25 0 37 25 20 45 -16 19 -39 19 -46
0z"/>
<path d="M1564 2076 c-3 -7 -4 -33 -2 -57 3 -39 6 -44 28 -44 23 0 25 4 28 58
3 55 2 57 -23 57 -14 0 -28 -6 -31 -14z"/>
<path d="M2450 2029 c0 -57 1 -60 23 -57 19 3 22 10 25 61 3 55 2 57 -23 57
-24 0 -25 -2 -25 -61z"/>
<path d="M3222 2033 c3 -51 6 -58 26 -61 21 -3 22 0 22 57 0 59 -1 61 -25 61
-25 0 -26 -2 -23 -57z"/>
<path d="M1790 2039 c0 -47 2 -50 23 -47 19 3 22 10 25 51 3 45 2 47 -22 47
-24 0 -26 -3 -26 -51z"/>
<path d="M2010 1974 c0 -114 0 -115 23 -112 21 3 22 7 25 116 l3 112 -26 0
-25 0 0 -116z"/>
<path d="M3450 2040 c0 -48 2 -51 23 -48 19 3 22 9 22 48 0 39 -3 45 -22 48
-21 3 -23 0 -23 -48z"/>
</g>
</svg>
