<svg xmlns="http://www.w3.org/2000/svg" viewBox="0 0 1440 320">
  <path fill="#5674AF" fill-opacity="1" d="M0,64L26.7,58.7C53.3,53,107,43,160,64C213.3,85,267,139,320,154.7C373.3,171,427,149,480,149.3C533.3,149,587,171,640,170.7C693.3,171,747,149,800,154.7C853.3,160,907,192,960,197.3C1013.3,203,1067,181,1120,192C1173.3,203,1227,245,1280,234.7C1333.3,224,1387,160,1413,128L1440,96L1440,320L1413.3,320C1386.7,320,1333,320,1280,320C1226.7,320,1173,320,1120,320C1066.7,320,1013,320,960,320C906.7,320,853,320,800,320C746.7,320,693,320,640,320C586.7,320,533,320,480,320C426.7,320,373,320,320,320C266.7,320,213,320,160,320C106.7,320,53,320,27,320L0,320Z"></path>
</svg>